<svg width="32" height="32" viewBox="0 0 32 32" fill="none" xmlns="http://www.w3.org/2000/svg">
  <defs>
    <linearGradient id="gradient" x1="0%" y1="0%" x2="100%" y2="100%">
      <stop offset="0%" style="stop-color:#3B82F6;stop-opacity:1" />
      <stop offset="100%" style="stop-color:#8B5CF6;stop-opacity:1" />
    </linearGradient>
  </defs>
  
  <!-- Background circle -->
  <circle cx="16" cy="16" r="15" fill="url(#gradient)" stroke="#ffffff" stroke-width="1"/>
  
  <!-- Tech symbol - Circuit pattern -->
  <g fill="#ffffff" opacity="0.9">
    <!-- Central processor -->
    <rect x="12" y="12" width="8" height="8" rx="1" fill="#ffffff"/>
    
    <!-- Circuit lines -->
    <rect x="8" y="15" width="4" height="2" rx="1"/>
    <rect x="20" y="15" width="4" height="2" rx="1"/>
    <rect x="15" y="8" width="2" height="4" rx="1"/>
    <rect x="15" y="20" width="2" height="4" rx="1"/>
    
    <!-- Corner dots -->
    <circle cx="10" cy="10" r="1.5"/>
    <circle cx="22" cy="10" r="1.5"/>
    <circle cx="10" cy="22" r="1.5"/>
    <circle cx="22" cy="22" r="1.5"/>
    
    <!-- Connection lines -->
    <rect x="10" y="14" width="2" height="4" rx="1"/>
    <rect x="20" y="14" width="2" height="4" rx="1"/>
    <rect x="14" y="10" width="4" height="2" rx="1"/>
    <rect x="14" y="20" width="4" height="2" rx="1"/>
  </g>
  
  <!-- Letter T overlay -->
  <text x="16" y="20" font-family="Arial, sans-serif" font-size="12" font-weight="bold" text-anchor="middle" fill="#3B82F6">T</text>
</svg>